<mxfile host="Electron" agent="Mozilla/5.0 (Windows NT 10.0; Win64; x64) AppleWebKit/537.36 (KHTML, like Gecko) draw.io/24.7.8 Chrome/128.0.6613.36 Electron/32.0.1 Safari/537.36" version="24.7.8">
  <diagram name="Page-1" id="gXMETLlfC8Isn1OahbXS">
    <mxGraphModel dx="707" dy="808" grid="1" gridSize="10" guides="1" tooltips="1" connect="1" arrows="1" fold="1" page="1" pageScale="1" pageWidth="850" pageHeight="1100" math="0" shadow="0">
      <root>
        <mxCell id="0" />
        <mxCell id="1" parent="0" />
        <mxCell id="Jceuv5UsLAZv2g3vVsXE-1" value="end" style="rounded=1;whiteSpace=wrap;html=1;" vertex="1" parent="1">
          <mxGeometry x="160" y="860" width="120" height="60" as="geometry" />
        </mxCell>
        <mxCell id="Jceuv5UsLAZv2g3vVsXE-16" value="" style="edgeStyle=orthogonalEdgeStyle;rounded=0;orthogonalLoop=1;jettySize=auto;html=1;" edge="1" parent="1" source="Jceuv5UsLAZv2g3vVsXE-2" target="Jceuv5UsLAZv2g3vVsXE-4">
          <mxGeometry relative="1" as="geometry" />
        </mxCell>
        <mxCell id="Jceuv5UsLAZv2g3vVsXE-2" value="start" style="rounded=1;whiteSpace=wrap;html=1;" vertex="1" parent="1">
          <mxGeometry x="160" y="40" width="120" height="60" as="geometry" />
        </mxCell>
        <mxCell id="Jceuv5UsLAZv2g3vVsXE-15" value="" style="edgeStyle=orthogonalEdgeStyle;rounded=0;orthogonalLoop=1;jettySize=auto;html=1;" edge="1" parent="1" source="Jceuv5UsLAZv2g3vVsXE-4" target="Jceuv5UsLAZv2g3vVsXE-6">
          <mxGeometry relative="1" as="geometry" />
        </mxCell>
        <mxCell id="Jceuv5UsLAZv2g3vVsXE-4" value="first_word: (str)" style="shape=card;whiteSpace=wrap;html=1;" vertex="1" parent="1">
          <mxGeometry x="120" y="150" width="200" height="60" as="geometry" />
        </mxCell>
        <mxCell id="Jceuv5UsLAZv2g3vVsXE-14" value="" style="edgeStyle=orthogonalEdgeStyle;rounded=0;orthogonalLoop=1;jettySize=auto;html=1;" edge="1" parent="1" source="Jceuv5UsLAZv2g3vVsXE-6" target="Jceuv5UsLAZv2g3vVsXE-8">
          <mxGeometry relative="1" as="geometry" />
        </mxCell>
        <mxCell id="Jceuv5UsLAZv2g3vVsXE-6" value="second_word: (str)" style="shape=card;whiteSpace=wrap;html=1;" vertex="1" parent="1">
          <mxGeometry x="120" y="270" width="200" height="60" as="geometry" />
        </mxCell>
        <mxCell id="Jceuv5UsLAZv2g3vVsXE-13" value="" style="edgeStyle=orthogonalEdgeStyle;rounded=0;orthogonalLoop=1;jettySize=auto;html=1;" edge="1" parent="1" source="Jceuv5UsLAZv2g3vVsXE-8" target="Jceuv5UsLAZv2g3vVsXE-10">
          <mxGeometry relative="1" as="geometry" />
        </mxCell>
        <mxCell id="Jceuv5UsLAZv2g3vVsXE-8" value="manipolation: (str)&lt;div&gt;&#39;*&#39; + first_word + &#39;*&#39; + second_word + &#39;*&#39;&lt;/div&gt;" style="rounded=0;whiteSpace=wrap;html=1;" vertex="1" parent="1">
          <mxGeometry x="110" y="390" width="220" height="70" as="geometry" />
        </mxCell>
        <mxCell id="Jceuv5UsLAZv2g3vVsXE-11" value="" style="edgeStyle=orthogonalEdgeStyle;rounded=0;orthogonalLoop=1;jettySize=auto;html=1;" edge="1" parent="1" source="Jceuv5UsLAZv2g3vVsXE-9" target="Jceuv5UsLAZv2g3vVsXE-1">
          <mxGeometry relative="1" as="geometry" />
        </mxCell>
        <mxCell id="Jceuv5UsLAZv2g3vVsXE-9" value="manipolatin&lt;div&gt;manipolation_02&lt;/div&gt;" style="shape=document;whiteSpace=wrap;html=1;boundedLbl=1;" vertex="1" parent="1">
          <mxGeometry x="160" y="680" width="120" height="80" as="geometry" />
        </mxCell>
        <mxCell id="Jceuv5UsLAZv2g3vVsXE-12" value="" style="edgeStyle=orthogonalEdgeStyle;rounded=0;orthogonalLoop=1;jettySize=auto;html=1;" edge="1" parent="1" source="Jceuv5UsLAZv2g3vVsXE-10" target="Jceuv5UsLAZv2g3vVsXE-9">
          <mxGeometry relative="1" as="geometry" />
        </mxCell>
        <mxCell id="Jceuv5UsLAZv2g3vVsXE-10" value="manipolation_02: (str)&lt;div&gt;&#39;-&#39; + first_word + &#39;-&#39; + second_word + &#39;-&#39;&lt;br&gt;&lt;/div&gt;" style="rounded=0;whiteSpace=wrap;html=1;" vertex="1" parent="1">
          <mxGeometry x="110" y="515" width="220" height="70" as="geometry" />
        </mxCell>
      </root>
    </mxGraphModel>
  </diagram>
</mxfile>
